<?xml version="1.0" standalone="no"?>
<!DOCTYPE svg PUBLIC "-//W3C//DTD SVG 20010904//EN"
 "http://www.w3.org/TR/2001/REC-SVG-20010904/DTD/svg10.dtd">
<svg version="1.0" xmlns="http://www.w3.org/2000/svg"
 width="400.000000pt" height="400.000000pt" viewBox="0 0 400.000000 400.000000"
 preserveAspectRatio="xMidYMid meet">
<metadata>
Created by potrace 1.14, written by Peter Selinger 2001-2017
</metadata>
<g transform="translate(0.000000,400.000000) scale(0.100000,-0.100000)"
fill="#000000" stroke="none">
<path d="M380 3770 l0 -50 -50 0 -50 0 0 -670 0 -670 70 0 70 0 0 50 0 50 50
0 50 0 0 50 0 50 50 0 50 0 0 100 0 100 50 0 50 0 0 100 0 100 50 0 50 0 0 50
0 50 430 0 430 0 0 -1180 0 -1180 -50 0 -50 0 0 -50 0 -50 -50 0 -50 0 0 -50
0 -50 -50 0 -50 0 0 -50 0 -50 -50 0 -50 0 0 -50 0 -50 -50 0 -50 0 0 -70 0
-70 820 0 820 0 0 70 0 70 -50 0 -50 0 0 50 0 50 -50 0 -50 0 0 50 0 50 -50 0
-50 0 0 50 0 50 -50 0 -50 0 0 50 0 50 -50 0 -50 0 0 1180 0 1180 430 0 430 0
0 -50 0 -50 50 0 50 0 0 -100 0 -100 50 0 50 0 0 -100 0 -100 50 0 50 0 0 -50
0 -50 50 0 50 0 0 -50 0 -50 70 0 70 0 0 670 0 670 -50 0 -50 0 0 50 0 50
-1620 0 -1620 0 0 -50z"/>
</g>
</svg>
